<svg width="648" height="197" viewBox="0 0 648 197" fill="none" xmlns="http://www.w3.org/2000/svg">
<path d="M177.95 101.207H199.73V91.7469H177.95V84.1269H201.06V74.6369H167.43V118.757H201.21V109.267H177.95V101.207ZM244.06 89.3369H235.5C235.986 86.3958 236.687 83.4946 237.6 80.6569C238.136 78.8082 239 77.0707 240.15 75.5269L245.44 81.0569C246.554 80.8548 247.58 80.3176 248.38 79.5169C248.727 79.1766 249.002 78.7703 249.189 78.3221C249.376 77.8738 249.472 77.3926 249.47 76.9069C249.451 76.2916 249.28 75.6906 248.971 75.1581C248.662 74.6257 248.225 74.1785 247.7 73.8569C246.423 72.9812 244.898 72.5395 243.35 72.5969C239.857 72.5969 236.703 74.0935 233.89 77.0869C230.958 80.318 229.044 84.3428 228.39 88.6569L223.5 90.8169L223.44 93.5869L227.66 93.0569L224.95 112.357C224.475 115.937 223.807 119.489 222.95 122.997C222.553 124.775 221.842 126.468 220.85 127.997L214.11 124.397C213.337 124.705 212.68 125.247 212.23 125.947C211.791 126.673 211.569 127.509 211.59 128.357C211.577 128.887 211.681 129.413 211.894 129.898C212.106 130.384 212.422 130.817 212.82 131.167C213.674 131.917 214.784 132.311 215.92 132.267C218.206 132.179 220.406 131.366 222.2 129.947C224.532 128.198 226.508 126.019 228.02 123.527C229.181 121.646 230.112 119.631 230.79 117.527C231.604 114.914 232.199 112.238 232.57 109.527L234.88 93.0569H244.06V89.3369ZM131.98 74.6369H113.11V118.757H131.98C145.78 118.757 154.89 109.997 154.89 96.6969C154.89 83.3969 145.78 74.6369 131.98 74.6369ZM131.76 109.017H123.63V84.3769H131.76C139.96 84.3769 143.89 89.4769 143.89 96.6969C143.89 103.917 139.96 109.017 131.76 109.017ZM76.06 73.8569C62.45 73.8569 52.8 83.5669 52.8 96.7369C52.8 109.907 62.45 119.567 76.06 119.567C89.67 119.567 99.31 109.867 99.31 96.6969C99.31 83.5269 89.67 73.8569 76.06 73.8569ZM76.06 109.527C68.87 109.527 63.77 104.297 63.77 96.7369C63.77 89.1769 68.87 83.9469 76.06 83.9469C83.25 83.9469 88.35 89.1769 88.35 96.7369C88.35 104.297 83.24 109.487 76.06 109.487V109.527ZM23.06 83.9069C25.1718 83.8497 27.2602 84.3606 29.1072 85.3861C30.9542 86.4116 32.492 87.9142 33.56 89.7369L42.79 84.4369C39.06 77.7569 31.63 73.8569 23.22 73.8569C9.61001 73.8569 0 83.3769 0 96.7369C0 110.097 9.61001 119.607 23.22 119.607C31.66 119.567 38.38 115.857 42.41 109.857L33.78 103.737C32.6484 105.535 31.0739 107.013 29.2073 108.029C27.3408 109.044 25.2448 109.564 23.12 109.537C16.6 109.537 10.96 104.937 10.96 96.7469C10.96 89.1369 16.13 83.9069 23.06 83.9069ZM515.36 88.7569C515.36 80.0569 509.56 74.6369 498.66 74.6369H479.5V118.757H490.06V102.247H491.6L503.2 118.757H515.74L503.06 101.927C510.98 100.667 515.39 95.7469 515.39 88.7569H515.36ZM490.06 93.3869V84.1869H498.59C502.31 84.1869 504.71 85.6369 504.71 88.7569C504.71 91.8769 502.38 93.3869 498.59 93.3869H490.06ZM630.96 74.6369H618.36L601.44 118.757H612.44L615.78 109.487H633.3L636.64 118.757H647.86L630.96 74.6369ZM619.18 99.9769L624.53 85.1069L629.89 99.9769H619.18ZM327.36 74.6369L310.44 118.757H321.44L324.78 109.487H342.3L345.64 118.757H356.86L339.93 74.6369H327.36ZM328.18 99.9769L333.53 85.1069L338.89 99.9769H328.18ZM574.29 83.9069C576.399 83.8495 578.485 84.3592 580.331 85.383C582.176 86.4067 583.712 87.9068 584.78 89.7269L594.06 84.4369C590.27 77.7569 582.83 73.8569 574.42 73.8569C560.8 73.8569 551.19 83.3769 551.19 96.7369C551.19 110.097 560.8 119.607 574.42 119.607C582.86 119.607 589.57 115.867 593.61 109.847L584.97 103.727C583.841 105.526 582.269 107.004 580.404 108.02C578.539 109.036 576.444 109.555 574.32 109.527C567.8 109.527 562.16 104.927 562.16 96.7369C562.16 89.1369 567.33 83.9069 574.29 83.9069ZM442.29 101.207H464.06V91.7469H442.27V84.1269H465.4V74.6369H431.75V118.757H465.53V109.267H442.27L442.29 101.207ZM392.06 102.657L382.01 74.6569H367.06V118.757H377.58V88.6569L386.4 114.597H397.59L406.41 88.5969V118.757H416.94V74.6369H402.06L392.06 102.657ZM528.13 118.757H538.66V74.6369H528.13V118.757ZM260.71 87.6769C258.447 87.6691 256.205 88.118 254.12 88.9969C252.046 89.8662 250.171 91.149 248.61 92.7669C245.13 96.4159 243.174 101.255 243.14 106.297C243.14 110.297 244.287 113.474 246.58 115.827C248.873 118.18 251.993 119.36 255.94 119.367C258.208 119.382 260.456 118.94 262.55 118.067C264.621 117.21 266.495 115.941 268.06 114.337C271.584 110.643 273.547 105.732 273.54 100.627C273.54 96.6269 272.39 93.4769 270.09 91.1769C267.79 88.8769 264.663 87.7102 260.71 87.6769ZM262.83 111.467C261.13 114.537 259.05 116.077 256.61 116.077C255.802 116.107 255.001 115.914 254.295 115.519C253.59 115.124 253.006 114.542 252.61 113.837C251.577 111.811 251.104 109.547 251.24 107.277C251.097 103.242 251.959 99.2352 253.75 95.6169C255.423 92.5169 257.47 90.9669 259.89 90.9669C260.713 90.9292 261.531 91.1181 262.253 91.5131C262.976 91.9081 263.577 92.494 263.99 93.2069C264.91 94.6969 265.36 96.9469 265.36 99.9469C265.505 103.939 264.635 107.903 262.83 111.467V111.467ZM299.31 87.6769C297.449 87.8273 295.691 88.5905 294.31 89.8469C292.114 91.6636 290.185 93.7811 288.58 96.1369L290.34 87.6769H288.15L277.29 90.1969V92.4169L282.52 93.1869L277.52 118.757H285.27L287.73 104.137C288.072 101.622 289.004 99.2232 290.45 97.1369C291.907 95.2495 293.845 93.7885 296.06 92.9069L297.75 97.7069H297.88C299.488 97.7758 301.062 97.2367 302.29 96.1969C302.843 95.7247 303.284 95.1348 303.58 94.4704C303.876 93.806 304.019 93.0839 304 92.3569C304.027 91.7351 303.924 91.1145 303.699 90.5346C303.473 89.9546 303.129 89.4278 302.689 88.9878C302.249 88.5477 301.722 88.2039 301.142 87.9783C300.562 87.7526 299.942 87.65 299.32 87.6769H299.31Z" fill="black"/>
</svg>
