<svg width="276" height="223" viewBox="0 0 276 223" fill="none" xmlns="http://www.w3.org/2000/svg">
<path d="M252.35 142.786L256.72 130.636L261.08 142.786H252.35ZM261.95 122.086H251.68L237.85 158.136H246.85L249.58 150.566H263.88L266.61 158.136H275.78L261.95 122.086ZM215.67 129.656C217.395 129.609 219.102 130.025 220.611 130.863C222.12 131.7 223.377 132.927 224.25 134.416L231.79 130.096C228.73 124.636 222.65 121.416 215.79 121.416C204.67 121.416 196.79 129.196 196.79 140.106C196.79 151.016 204.64 158.796 215.79 158.796C222.7 158.796 228.18 155.736 231.48 150.796L224.42 145.796C223.496 147.264 222.211 148.471 220.688 149.301C219.165 150.131 217.454 150.556 215.72 150.536C210.39 150.536 205.78 146.776 205.78 140.076C205.78 133.906 210 129.626 215.69 129.626L215.67 129.656ZM177.96 158.136H186.55V122.136H177.96V158.136ZM146.82 137.406V129.886H153.82C156.82 129.886 158.82 131.076 158.82 133.616C158.82 136.156 156.92 137.406 153.82 137.406H146.82ZM167.55 133.616C167.55 126.516 162.81 122.086 153.9 122.086H138.22V158.136H146.82V144.646H148.08L157.58 158.136H167.83L157.48 144.386C163.94 143.386 167.55 139.386 167.55 133.616ZM107.8 143.796H125.59V136.066H107.8V129.836H126.7V122.086H99.2V158.136H126.8V150.386H107.8V143.796ZM66.76 145.006L58.55 122.086H46.37V158.136H54.97V133.546L62.18 154.736H71.32L78.53 133.466V158.136H87.08V122.136H74.92L66.76 145.006ZM14.57 142.786L18.95 130.636L23.33 142.786H14.57ZM13.91 122.086L0.0799561 158.136H9.07996L11.81 150.566H26.08L28.81 158.136H37.97L24.15 122.136L13.91 122.086ZM241.71 84.0859C242.921 82.5492 244.524 81.3676 246.35 80.6659L247.73 84.5859H247.83C249.145 84.643 250.433 84.204 251.44 83.3559C251.892 82.9696 252.252 82.4872 252.495 81.944C252.737 81.4008 252.855 80.8105 252.84 80.2159C252.863 79.7069 252.779 79.1988 252.595 78.7238C252.41 78.2489 252.129 77.8175 251.769 77.4572C251.408 77.0969 250.977 76.8156 250.502 76.6312C250.027 76.4467 249.519 76.3632 249.01 76.3859C247.477 76.5043 246.027 77.1307 244.89 78.1659C243.098 79.6492 241.525 81.3799 240.22 83.3059L241.65 76.3859H239.86L230.99 78.4459V80.2659L235.26 80.8859L231.14 101.786H237.48L239.48 89.7859C239.749 87.7084 240.514 85.7261 241.71 84.0059V84.0859ZM211.8 82.7959C213.173 80.2693 214.84 79.0026 216.8 78.9959C217.473 78.9632 218.141 79.1167 218.732 79.4396C219.323 79.7625 219.814 80.2422 220.15 80.8259C221.006 82.5304 221.393 84.4324 221.27 86.3359C221.386 89.5983 220.67 92.8365 219.19 95.7459C217.79 98.2593 216.097 99.5159 214.11 99.5159C213.451 99.5386 212.799 99.38 212.224 99.0573C211.649 98.7346 211.174 98.2602 210.85 97.6859C210.002 96.0324 209.615 94.1808 209.73 92.3259C209.611 89.0283 210.316 85.753 211.78 82.7959H211.8ZM204.28 85.5759C203.491 87.4746 203.083 89.5099 203.08 91.5659C203.009 92.9866 203.222 94.4072 203.706 95.7447C204.19 97.0822 204.936 98.3098 205.9 99.3559C206.904 100.34 208.102 101.105 209.417 101.603C210.732 102.1 212.136 102.319 213.54 102.246C215.397 102.256 217.237 101.892 218.95 101.176C220.626 100.486 222.147 99.4661 223.42 98.1759C224.859 96.6863 225.994 94.9301 226.76 93.0059C227.538 91.0771 227.935 89.0158 227.93 86.9359C227.999 85.522 227.783 84.1086 227.293 82.7804C226.803 81.4521 226.051 80.2364 225.08 79.2059C224.07 78.2312 222.871 77.4743 221.557 76.9823C220.243 76.4903 218.841 76.2737 217.44 76.3459C215.599 76.3424 213.776 76.7097 212.08 77.4259C210.384 78.1363 208.852 79.1881 207.58 80.5159C206.158 81.9824 205.04 83.7156 204.29 85.6159L204.28 85.5759ZM203.83 77.7059H196.83C197.226 75.3039 197.797 72.9342 198.54 70.6159C198.983 69.1036 199.691 67.6817 200.63 66.4159L204.95 70.9459C205.859 70.7795 206.697 70.34 207.35 69.6859C207.635 69.4069 207.861 69.074 208.015 68.7065C208.17 68.3391 208.25 67.9446 208.25 67.5459C208.25 67.0387 208.122 66.5397 207.877 66.0955C207.632 65.6513 207.279 65.2765 206.85 65.0059C205.801 64.2998 204.553 63.9492 203.29 64.0059C201.815 64.0344 200.363 64.3763 199.03 65.0091C197.697 65.6419 196.514 66.5509 195.56 67.6759C193.164 70.3131 191.605 73.602 191.08 77.1259L187.08 78.8859L187.03 81.1559L190.48 80.7259L188.26 96.4859C187.88 99.4135 187.34 102.318 186.64 105.186C186.312 106.637 185.729 108.018 184.92 109.266L179.41 106.316C178.78 106.57 178.246 107.014 177.88 107.586C177.515 108.188 177.331 108.882 177.35 109.586C177.341 110.019 177.425 110.448 177.598 110.845C177.771 111.242 178.027 111.597 178.35 111.886C179.051 112.499 179.959 112.821 180.89 112.786C182.758 112.712 184.555 112.047 186.02 110.886C187.927 109.462 189.54 107.683 190.77 105.646C191.74 104.093 192.516 102.428 193.08 100.686C193.747 98.5602 194.235 96.3827 194.54 94.1759L196.42 80.7259H203.89L203.83 77.7059ZM165.96 94.0059H146.96V87.4059H164.75V79.6759H146.95V73.4459H165.85V65.6959H138.35V101.746H165.96V94.0059ZM109.21 93.7959H102.57V73.6559H109.21C115.91 73.6559 119.12 77.8259 119.12 83.7159C119.12 89.6059 115.91 93.7859 109.21 93.7859V93.7959ZM109.39 65.6959H93.97V101.746H109.39C120.67 101.746 128.11 94.5859 128.11 83.7459C128.11 72.9059 120.67 65.7459 109.39 65.7459V65.6959ZM63.7 73.2659C69.57 73.2659 73.7 77.5459 73.7 83.7159C73.7 89.8859 69.53 94.1759 63.7 94.1759C57.87 94.1759 53.7 89.8959 53.7 83.7159C53.7 77.5359 57.87 73.2659 63.7 73.2659V73.2659ZM63.7 102.416C74.82 102.416 82.7 94.4859 82.7 83.7159C82.7 72.9459 74.82 65.0059 63.7 65.0059C52.58 65.0059 44.7 72.9359 44.7 83.6959C44.7 94.4559 52.57 102.396 63.7 102.396V102.416ZM20.52 102.396C27.42 102.396 32.91 99.3259 36.2 94.3959L29.2 89.3959C28.2754 90.8656 26.989 92.0733 25.4639 92.9033C23.9388 93.7333 22.2261 94.1577 20.49 94.1359C15.16 94.1359 10.56 90.3759 10.56 83.6759C10.56 77.5059 14.78 73.2259 20.47 73.2259C22.1873 73.1904 23.883 73.6149 25.3811 74.4554C26.8792 75.2958 28.1252 76.5217 28.99 78.0059L36.54 73.7059C33.47 68.2459 27.4 65.0059 20.52 65.0059C9.39996 65.0059 1.51996 72.7859 1.51996 83.6959C1.51996 94.6059 9.36996 102.396 20.52 102.396" fill="black"/>
</svg>
